<?xml version="1.0" encoding="utf-8"?>
<!-- Generator: Adobe Illustrator 25.4.1, SVG Export Plug-In . SVG Version: 6.00 Build 0)  -->
<svg version="1.1" id="Layer_1" xmlns="http://www.w3.org/2000/svg" xmlns:xlink="http://www.w3.org/1999/xlink" x="0px" y="0px"
	 viewBox="0 0 2833.22 439.43" style="enable-background:new 0 0 2833.22 439.43;" xml:space="preserve">
<style type="text/css">
	.st0{fill:none;stroke:url(#SVGID_1_);stroke-width:4;stroke-miterlimit:10;}
	.st1{fill:none;stroke:url(#SVGID_00000148645438081372967380000000541914190006109086_);stroke-width:4;stroke-miterlimit:10;}
	.st2{fill:none;stroke:url(#SVGID_00000136411718623426394950000005036973091737929381_);stroke-width:4;stroke-miterlimit:10;}
	.st3{fill:none;stroke:url(#SVGID_00000071560730928927465040000015996666127432200085_);stroke-width:4;stroke-miterlimit:10;}
	.st4{fill:none;stroke:url(#SVGID_00000165914527800571986170000002375123288213078912_);stroke-width:4;stroke-miterlimit:10;}
	.st5{fill:none;stroke:url(#SVGID_00000137824814046259579730000014306689029196003510_);stroke-width:4;stroke-miterlimit:10;}
	.st6{fill:none;stroke:url(#SVGID_00000093149485251957924120000017783013049736775333_);stroke-width:4;stroke-miterlimit:10;}
	.st7{fill:none;stroke:url(#SVGID_00000129889502538300410060000011902659657702844600_);stroke-width:4;stroke-miterlimit:10;}
	.st8{fill:none;stroke:url(#SVGID_00000181068480331956836040000009734439213464844418_);stroke-width:4;stroke-miterlimit:10;}
	.st9{fill:none;stroke:url(#SVGID_00000147935790491422429160000007849290853217724605_);stroke-width:4;stroke-miterlimit:10;}
	.st10{fill:none;stroke:url(#SVGID_00000134968516050687194010000018225225610700408481_);stroke-width:4;stroke-miterlimit:10;}
	.st11{fill:url(#SVGID_00000067950951183907850050000007680379396889898419_);}
	.st12{fill:url(#SVGID_00000111172715590492124370000008392001401812006072_);}
	.st13{fill:url(#SVGID_00000147934090035872741870000015549867215325344425_);}
	.st14{fill:url(#SVGID_00000072975116758324281570000002258394561365209518_);}
	.st15{fill:url(#SVGID_00000180329912102092312250000009356270911203042453_);}
	.st16{fill:url(#SVGID_00000138553821605995895810000004554461366105321616_);}
	.st17{fill:url(#SVGID_00000057129187611723089180000011426083893228956566_);}
	.st18{fill:url(#SVGID_00000120541379813613077000000010914018875395354259_);}
	.st19{fill:url(#SVGID_00000043415157413632987500000013450951402915596212_);}
	.st20{fill:url(#SVGID_00000156559519775174751210000003695876370441360274_);}
	.st21{fill:url(#SVGID_00000142857875602463340620000010664545717454595457_);}
	.st22{fill:none;stroke:url(#SVGID_00000116210593987118440840000006085656109931313808_);stroke-width:6;stroke-miterlimit:10;}
	.st23{fill:none;stroke:url(#SVGID_00000035495004133895843720000002830891632315210656_);stroke-width:6;stroke-miterlimit:10;}
	.st24{fill:url(#SVGID_00000112618484057350922490000015117552431688226463_);}
	.st25{fill:url(#SVGID_00000096740736046864695660000003847946253327489430_);}
</style>
<g>
	<g>
		<g>
			<linearGradient id="SVGID_1_" gradientUnits="userSpaceOnUse" x1="433.8658" y1="219.9426" x2="547.2536" y2="219.9426">
				<stop  offset="0.1344" style="stop-color:#E5E5E5"/>
				<stop  offset="0.2527" style="stop-color:#B9B9B9"/>
				<stop  offset="0.4493" style="stop-color:#FFFFFF"/>
				<stop  offset="0.6935" style="stop-color:#A8A7A7"/>
				<stop  offset="0.8387" style="stop-color:#CFCFCE"/>
			</linearGradient>
			<path className="st0" d="M545.25,240.27c0,28.81-6.68,50.87-20.03,66.17c-13.35,15.31-32.69,22.96-58,22.96
				c-11.3,0-21.76-1.95-31.36-5.85v-45.47c8.3,6.3,17.61,9.45,27.91,9.45c22.11,0,33.16-16.4,33.16-49.22V110.48h48.32V240.27z"/>
			
				<linearGradient id="SVGID_00000150795069824963155040000002312261525676857477_" gradientUnits="userSpaceOnUse" x1="577.7764" y1="218.067" x2="795.7901" y2="218.067">
				<stop  offset="0.1344" style="stop-color:#E5E5E5"/>
				<stop  offset="0.2527" style="stop-color:#B9B9B9"/>
				<stop  offset="0.4493" style="stop-color:#FFFFFF"/>
				<stop  offset="0.6935" style="stop-color:#A8A7A7"/>
				<stop  offset="0.8387" style="stop-color:#CFCFCE"/>
			</linearGradient>
			
				<path style="fill:none;stroke:url(#SVGID_00000150795069824963155040000002312261525676857477_);stroke-width:4;stroke-miterlimit:10;" d="
				M792.96,325.65h-52.82l-15.31-47.87h-76.53l-15.16,47.87h-52.52l78.33-215.17h57.47L792.96,325.65z M713.73,240.57l-23.11-72.32
				c-1.7-5.4-2.9-11.85-3.6-19.36h-1.2c-0.5,6.3-1.75,12.56-3.75,18.76l-23.41,72.93H713.73z"/>
			
				<linearGradient id="SVGID_00000083051881823267287100000005828609973902227079_" gradientUnits="userSpaceOnUse" x1="829.1848" y1="218.067" x2="990.439" y2="218.067">
				<stop  offset="0.1344" style="stop-color:#E5E5E5"/>
				<stop  offset="0.2527" style="stop-color:#B9B9B9"/>
				<stop  offset="0.4493" style="stop-color:#FFFFFF"/>
				<stop  offset="0.6935" style="stop-color:#A8A7A7"/>
				<stop  offset="0.8387" style="stop-color:#CFCFCE"/>
			</linearGradient>
			
				<path style="fill:none;stroke:url(#SVGID_00000083051881823267287100000005828609973902227079_);stroke-width:4;stroke-miterlimit:10;" d="
				M879.65,251.53v74.13h-48.47V110.48h75.93c54.22,0,81.33,22.86,81.33,68.57c0,21.61-7.78,39.09-23.33,52.44
				c-15.56,13.35-36.34,20.03-62.35,20.03H879.65z M879.65,147.69v67.07h19.06c25.81,0,38.71-11.3,38.71-33.91
				c0-22.11-12.9-33.16-38.71-33.16H879.65z"/>
			
				<linearGradient id="SVGID_00000026845552514534773990000008359874544369545380_" gradientUnits="userSpaceOnUse" x1="1005.3564" y1="218.067" x2="1223.3701" y2="218.067">
				<stop  offset="0.1344" style="stop-color:#E5E5E5"/>
				<stop  offset="0.2527" style="stop-color:#B9B9B9"/>
				<stop  offset="0.4493" style="stop-color:#FFFFFF"/>
				<stop  offset="0.6935" style="stop-color:#A8A7A7"/>
				<stop  offset="0.8387" style="stop-color:#CFCFCE"/>
			</linearGradient>
			
				<path style="fill:none;stroke:url(#SVGID_00000026845552514534773990000008359874544369545380_);stroke-width:4;stroke-miterlimit:10;" d="
				M1220.54,325.65h-52.82l-15.31-47.87h-76.53l-15.16,47.87h-52.52l78.33-215.17h57.47L1220.54,325.65z M1141.31,240.57
				l-23.11-72.32c-1.7-5.4-2.9-11.85-3.6-19.36h-1.2c-0.5,6.3-1.75,12.56-3.75,18.76l-23.41,72.93H1141.31z"/>
			
				<linearGradient id="SVGID_00000140011665844012959780000005818614683380976318_" gradientUnits="userSpaceOnUse" x1="1256.7649" y1="218.067" x2="1454.3317" y2="218.067">
				<stop  offset="0.1344" style="stop-color:#E5E5E5"/>
				<stop  offset="0.2527" style="stop-color:#B9B9B9"/>
				<stop  offset="0.4493" style="stop-color:#FFFFFF"/>
				<stop  offset="0.6935" style="stop-color:#A8A7A7"/>
				<stop  offset="0.8387" style="stop-color:#CFCFCE"/>
			</linearGradient>
			
				<path style="fill:none;stroke:url(#SVGID_00000140011665844012959780000005818614683380976318_);stroke-width:4;stroke-miterlimit:10;" d="
				M1452.33,325.65h-48.92l-88.68-135.2c-5.2-7.9-8.8-13.85-10.8-17.86h-0.6c0.8,7.6,1.2,19.21,1.2,34.81v118.24h-45.77V110.48
				h52.22l85.38,131c3.9,5.9,7.5,11.76,10.8,17.56h0.6c-0.8-5-1.2-14.86-1.2-29.56V110.48h45.77V325.65z"/>
			
				<linearGradient id="SVGID_00000182511777221077720490000012333495871232014010_" gradientUnits="userSpaceOnUse" x1="1584.5685" y1="218.067" x2="1893.1642" y2="218.067">
				<stop  offset="0.1344" style="stop-color:#E5E5E5"/>
				<stop  offset="0.2527" style="stop-color:#B9B9B9"/>
				<stop  offset="0.4493" style="stop-color:#FFFFFF"/>
				<stop  offset="0.6935" style="stop-color:#A8A7A7"/>
				<stop  offset="0.8387" style="stop-color:#CFCFCE"/>
			</linearGradient>
			
				<path style="fill:none;stroke:url(#SVGID_00000182511777221077720490000012333495871232014010_);stroke-width:4;stroke-miterlimit:10;" d="
				M1890.57,110.48l-56.87,215.17h-53.72l-35.71-138.05c-1.9-7.2-3.05-15.25-3.45-24.16h-0.6c-0.9,9.8-2.2,17.86-3.9,24.16
				l-36.61,138.05h-55.97l-56.57-215.17h52.97l30.31,143.3c1.3,6.1,2.25,14.31,2.85,24.61h0.9c0.4-7.7,1.85-16.1,4.35-25.21
				l39.01-142.7h51.92l35.26,144.5c1.3,5.3,2.45,13.01,3.45,23.11h0.6c0.4-7.9,1.45-15.91,3.15-24.01l29.71-143.6H1890.57z"/>
			
				<linearGradient id="SVGID_00000105412065554732650910000010692008526069021618_" gradientUnits="userSpaceOnUse" x1="1927.2457" y1="218.067" x2="2117.46" y2="218.067">
				<stop  offset="0.1344" style="stop-color:#E5E5E5"/>
				<stop  offset="0.2527" style="stop-color:#B9B9B9"/>
				<stop  offset="0.4493" style="stop-color:#FFFFFF"/>
				<stop  offset="0.6935" style="stop-color:#A8A7A7"/>
				<stop  offset="0.8387" style="stop-color:#CFCFCE"/>
			</linearGradient>
			
				<path style="fill:none;stroke:url(#SVGID_00000105412065554732650910000010692008526069021618_);stroke-width:4;stroke-miterlimit:10;" d="
				M2115.46,325.65h-48.62v-87.63h-89.13v87.63h-48.47V110.48h48.47v85.83h89.13v-85.83h48.62V325.65z"/>
			
				<linearGradient id="SVGID_00000023279864807185703080000004996383193114718384_" gradientUnits="userSpaceOnUse" x1="2174.0479" y1="218.067" x2="2307.0925" y2="218.067">
				<stop  offset="0.1344" style="stop-color:#E5E5E5"/>
				<stop  offset="0.2527" style="stop-color:#B9B9B9"/>
				<stop  offset="0.4493" style="stop-color:#FFFFFF"/>
				<stop  offset="0.6935" style="stop-color:#A8A7A7"/>
				<stop  offset="0.8387" style="stop-color:#CFCFCE"/>
			</linearGradient>
			
				<path style="fill:none;stroke:url(#SVGID_00000023279864807185703080000004996383193114718384_);stroke-width:4;stroke-miterlimit:10;" d="
				M2305.09,325.65h-129.04V110.48h124.09v39.46h-75.63v47.87h70.37v39.31h-70.37v49.22h80.58V325.65z"/>
			
				<linearGradient id="SVGID_00000127726942689393667080000006239096587019353266_" gradientUnits="userSpaceOnUse" x1="2348.9739" y1="218.067" x2="2482.0183" y2="218.067">
				<stop  offset="0.1344" style="stop-color:#E5E5E5"/>
				<stop  offset="0.2527" style="stop-color:#B9B9B9"/>
				<stop  offset="0.4493" style="stop-color:#FFFFFF"/>
				<stop  offset="0.6935" style="stop-color:#A8A7A7"/>
				<stop  offset="0.8387" style="stop-color:#CFCFCE"/>
			</linearGradient>
			
				<path style="fill:none;stroke:url(#SVGID_00000127726942689393667080000006239096587019353266_);stroke-width:4;stroke-miterlimit:10;" d="
				M2480.02,325.65h-129.04V110.48h124.09v39.46h-75.63v47.87h70.37v39.31h-70.37v49.22h80.58V325.65z"/>
			
				<linearGradient id="SVGID_00000037682605999286211600000005225013205853105831_" gradientUnits="userSpaceOnUse" x1="2523.9011" y1="218.067" x2="2656.0454" y2="218.067">
				<stop  offset="0.1344" style="stop-color:#E5E5E5"/>
				<stop  offset="0.2527" style="stop-color:#B9B9B9"/>
				<stop  offset="0.4493" style="stop-color:#FFFFFF"/>
				<stop  offset="0.6935" style="stop-color:#A8A7A7"/>
				<stop  offset="0.8387" style="stop-color:#CFCFCE"/>
			</linearGradient>
			
				<path style="fill:none;stroke:url(#SVGID_00000037682605999286211600000005225013205853105831_);stroke-width:4;stroke-miterlimit:10;" d="
				M2654.05,325.65H2525.9V110.48h48.47v175.86h79.68V325.65z"/>
			
				<linearGradient id="SVGID_00000041273478035735872220000005653291485483766924_" gradientUnits="userSpaceOnUse" x1="2681.5725" y1="218.142" x2="2833.2236" y2="218.142">
				<stop  offset="0.1344" style="stop-color:#E5E5E5"/>
				<stop  offset="0.2527" style="stop-color:#B9B9B9"/>
				<stop  offset="0.4493" style="stop-color:#FFFFFF"/>
				<stop  offset="0.6935" style="stop-color:#A8A7A7"/>
				<stop  offset="0.8387" style="stop-color:#CFCFCE"/>
			</linearGradient>
			
				<path style="fill:none;stroke:url(#SVGID_00000041273478035735872220000005653291485483766924_);stroke-width:4;stroke-miterlimit:10;" d="
				M2684.47,317.4v-48.02c8.7,7.3,18.16,12.78,28.36,16.43c10.2,3.65,20.51,5.48,30.91,5.48c6.1,0,11.43-0.55,15.98-1.65
				c4.55-1.1,8.35-2.63,11.4-4.58c3.05-1.95,5.33-4.25,6.83-6.9c1.5-2.65,2.25-5.52,2.25-8.63c0-4.2-1.2-7.95-3.6-11.25
				c-2.4-3.3-5.68-6.35-9.83-9.15c-4.15-2.8-9.08-5.5-14.78-8.1c-5.7-2.6-11.85-5.25-18.46-7.95c-16.81-7-29.33-15.55-37.59-25.66
				c-8.25-10.1-12.38-22.31-12.38-36.61c0-11.2,2.25-20.83,6.75-28.88c4.5-8.05,10.63-14.68,18.38-19.88
				c7.75-5.2,16.73-9.03,26.93-11.48c10.2-2.45,21.01-3.68,32.41-3.68c11.2,0,21.13,0.68,29.79,2.03
				c8.65,1.35,16.63,3.43,23.93,6.23V160c-3.6-2.5-7.53-4.7-11.78-6.6c-4.25-1.9-8.63-3.48-13.13-4.73
				c-4.5-1.25-8.98-2.18-13.43-2.78c-4.45-0.6-8.68-0.9-12.68-0.9c-5.5,0-10.5,0.53-15.01,1.58c-4.5,1.05-8.3,2.53-11.4,4.43
				c-3.1,1.9-5.5,4.18-7.2,6.83c-1.7,2.65-2.55,5.63-2.55,8.93c0,3.6,0.95,6.83,2.85,9.68c1.9,2.85,4.6,5.55,8.1,8.1
				c3.5,2.55,7.75,5.05,12.75,7.5c5,2.45,10.65,4.98,16.96,7.58c8.6,3.6,16.33,7.43,23.18,11.48c6.85,4.05,12.73,8.63,17.63,13.73
				c4.9,5.1,8.65,10.93,11.25,17.48c2.6,6.55,3.9,14.18,3.9,22.88c0,12-2.28,22.08-6.83,30.24c-4.55,8.15-10.73,14.76-18.53,19.81
				c-7.8,5.05-16.88,8.68-27.23,10.88s-21.28,3.3-32.79,3.3c-11.8,0-23.03-1-33.69-3S2692.28,321.4,2684.47,317.4z"/>
		</g>
		<g>
			
				<linearGradient id="SVGID_00000095305280479793251700000014953656262632940437_" gradientUnits="userSpaceOnUse" x1="-359.0352" y1="86.4113" x2="3255.5305" y2="646.528">
				<stop  offset="0.0503" style="stop-color:#535454"/>
				<stop  offset="0.1344" style="stop-color:#E5E5E5"/>
				<stop  offset="0.2527" style="stop-color:#B9B9B9"/>
				<stop  offset="0.3376" style="stop-color:#FFFFFF"/>
				<stop  offset="0.6935" style="stop-color:#A8A7A7"/>
				<stop  offset="0.8387" style="stop-color:#CFCFCE"/>
			</linearGradient>
			<path style="fill:url(#SVGID_00000095305280479793251700000014953656262632940437_);" d="M545.25,240.27
				c0,28.81-6.68,50.87-20.03,66.17c-13.35,15.31-32.69,22.96-58,22.96c-11.3,0-21.76-1.95-31.36-5.85v-45.47
				c8.3,6.3,17.61,9.45,27.91,9.45c22.11,0,33.16-16.4,33.16-49.22V110.48h48.32V240.27z"/>
			
				<linearGradient id="SVGID_00000042715322394427793490000001725039818176456862_" gradientUnits="userSpaceOnUse" x1="-355.331" y1="62.5075" x2="3259.2346" y2="622.6241">
				<stop  offset="0.0503" style="stop-color:#535454"/>
				<stop  offset="0.1344" style="stop-color:#E5E5E5"/>
				<stop  offset="0.2527" style="stop-color:#B9B9B9"/>
				<stop  offset="0.3376" style="stop-color:#FFFFFF"/>
				<stop  offset="0.6935" style="stop-color:#A8A7A7"/>
				<stop  offset="0.8387" style="stop-color:#CFCFCE"/>
			</linearGradient>
			<path style="fill:url(#SVGID_00000042715322394427793490000001725039818176456862_);" d="M792.96,325.65h-52.82l-15.31-47.87
				h-76.53l-15.16,47.87h-52.52l78.33-215.17h57.47L792.96,325.65z M713.73,240.57l-23.11-72.32c-1.7-5.4-2.9-11.85-3.6-19.36h-1.2
				c-0.5,6.3-1.75,12.56-3.75,18.76l-23.41,72.93H713.73z"/>
			
				<linearGradient id="SVGID_00000067933059705700313750000006667181379844961944_" gradientUnits="userSpaceOnUse" x1="-350.0096" y1="28.1669" x2="3264.5562" y2="588.2836">
				<stop  offset="0.0503" style="stop-color:#535454"/>
				<stop  offset="0.1344" style="stop-color:#E5E5E5"/>
				<stop  offset="0.2527" style="stop-color:#B9B9B9"/>
				<stop  offset="0.3376" style="stop-color:#FFFFFF"/>
				<stop  offset="0.6935" style="stop-color:#A8A7A7"/>
				<stop  offset="0.8387" style="stop-color:#CFCFCE"/>
			</linearGradient>
			<path style="fill:url(#SVGID_00000067933059705700313750000006667181379844961944_);" d="M879.65,251.53v74.13h-48.47V110.48
				h75.93c54.22,0,81.33,22.86,81.33,68.57c0,21.61-7.78,39.09-23.33,52.44c-15.56,13.35-36.34,20.03-62.35,20.03H879.65z
				 M879.65,147.69v67.07h19.06c25.81,0,38.71-11.3,38.71-33.91c0-22.11-12.9-33.16-38.71-33.16H879.65z"/>
			
				<linearGradient id="SVGID_00000094601705411318382880000009103010156662772141_" gradientUnits="userSpaceOnUse" x1="-345.3044" y1="-2.197" x2="3269.2612" y2="557.9197">
				<stop  offset="0.0503" style="stop-color:#535454"/>
				<stop  offset="0.1344" style="stop-color:#E5E5E5"/>
				<stop  offset="0.2527" style="stop-color:#B9B9B9"/>
				<stop  offset="0.3376" style="stop-color:#FFFFFF"/>
				<stop  offset="0.6935" style="stop-color:#A8A7A7"/>
				<stop  offset="0.8387" style="stop-color:#CFCFCE"/>
			</linearGradient>
			<path style="fill:url(#SVGID_00000094601705411318382880000009103010156662772141_);" d="M1220.54,325.65h-52.82l-15.31-47.87
				h-76.53l-15.16,47.87h-52.52l78.33-215.17h57.47L1220.54,325.65z M1141.31,240.57l-23.11-72.32c-1.7-5.4-2.9-11.85-3.6-19.36
				h-1.2c-0.5,6.3-1.75,12.56-3.75,18.76l-23.41,72.93H1141.31z"/>
			
				<linearGradient id="SVGID_00000101787632157589595750000003482082504774267783_" gradientUnits="userSpaceOnUse" x1="-338.7516" y1="-44.4834" x2="3275.814" y2="515.6332">
				<stop  offset="0.0503" style="stop-color:#535454"/>
				<stop  offset="0.1344" style="stop-color:#E5E5E5"/>
				<stop  offset="0.2527" style="stop-color:#B9B9B9"/>
				<stop  offset="0.3376" style="stop-color:#FFFFFF"/>
				<stop  offset="0.6935" style="stop-color:#A8A7A7"/>
				<stop  offset="0.8387" style="stop-color:#CFCFCE"/>
			</linearGradient>
			<path style="fill:url(#SVGID_00000101787632157589595750000003482082504774267783_);" d="M1452.33,325.65h-48.92l-88.68-135.2
				c-5.2-7.9-8.8-13.85-10.8-17.86h-0.6c0.8,7.6,1.2,19.21,1.2,34.81v118.24h-45.77V110.48h52.22l85.38,131
				c3.9,5.9,7.5,11.76,10.8,17.56h0.6c-0.8-5-1.2-14.86-1.2-29.56V110.48h45.77V325.65z"/>
			
				<linearGradient id="SVGID_00000078047288612978650560000011431979092560228537_" gradientUnits="userSpaceOnUse" x1="-329.0996" y1="-106.7698" x2="3285.4661" y2="453.3468">
				<stop  offset="0.0503" style="stop-color:#535454"/>
				<stop  offset="0.1344" style="stop-color:#E5E5E5"/>
				<stop  offset="0.2527" style="stop-color:#B9B9B9"/>
				<stop  offset="0.3376" style="stop-color:#FFFFFF"/>
				<stop  offset="0.6935" style="stop-color:#A8A7A7"/>
				<stop  offset="0.8387" style="stop-color:#CFCFCE"/>
			</linearGradient>
			<path style="fill:url(#SVGID_00000078047288612978650560000011431979092560228537_);" d="M1890.57,110.48l-56.87,215.17h-53.72
				l-35.71-138.05c-1.9-7.2-3.05-15.25-3.45-24.16h-0.6c-0.9,9.8-2.2,17.86-3.9,24.16l-36.61,138.05h-55.97l-56.57-215.17h52.97
				l30.31,143.3c1.3,6.1,2.25,14.31,2.85,24.61h0.9c0.4-7.7,1.85-16.1,4.35-25.21l39.01-142.7h51.92l35.26,144.5
				c1.3,5.3,2.45,13.01,3.45,23.11h0.6c0.4-7.9,1.45-15.91,3.15-24.01l29.71-143.6H1890.57z"/>
			
				<linearGradient id="SVGID_00000065069502508628676980000003434287318275307692_" gradientUnits="userSpaceOnUse" x1="-323.1151" y1="-145.389" x2="3291.4504" y2="414.7276">
				<stop  offset="0.0503" style="stop-color:#535454"/>
				<stop  offset="0.1344" style="stop-color:#E5E5E5"/>
				<stop  offset="0.2527" style="stop-color:#B9B9B9"/>
				<stop  offset="0.3376" style="stop-color:#FFFFFF"/>
				<stop  offset="0.6935" style="stop-color:#A8A7A7"/>
				<stop  offset="0.8387" style="stop-color:#CFCFCE"/>
			</linearGradient>
			<path style="fill:url(#SVGID_00000065069502508628676980000003434287318275307692_);" d="M2115.46,325.65h-48.62v-87.63h-89.13
				v87.63h-48.47V110.48h48.47v85.83h89.13v-85.83h48.62V325.65z"/>
			
				<linearGradient id="SVGID_00000153673638761979451000000003835870671983615641_" gradientUnits="userSpaceOnUse" x1="-318.0561" y1="-178.0366" x2="3296.5095" y2="382.08">
				<stop  offset="0.0503" style="stop-color:#535454"/>
				<stop  offset="0.1344" style="stop-color:#E5E5E5"/>
				<stop  offset="0.2527" style="stop-color:#B9B9B9"/>
				<stop  offset="0.3376" style="stop-color:#FFFFFF"/>
				<stop  offset="0.6935" style="stop-color:#A8A7A7"/>
				<stop  offset="0.8387" style="stop-color:#CFCFCE"/>
			</linearGradient>
			<path style="fill:url(#SVGID_00000153673638761979451000000003835870671983615641_);" d="M2305.09,325.65h-129.04V110.48h124.09
				v39.46h-75.63v47.87h70.37v39.31h-70.37v49.22h80.58V325.65z"/>
			
				<linearGradient id="SVGID_00000160883022084140159730000010409110418907563164_" gradientUnits="userSpaceOnUse" x1="-313.9541" y1="-204.5076" x2="3300.6116" y2="355.609">
				<stop  offset="0.0503" style="stop-color:#535454"/>
				<stop  offset="0.1344" style="stop-color:#E5E5E5"/>
				<stop  offset="0.2527" style="stop-color:#B9B9B9"/>
				<stop  offset="0.3376" style="stop-color:#FFFFFF"/>
				<stop  offset="0.6935" style="stop-color:#A8A7A7"/>
				<stop  offset="0.8387" style="stop-color:#CFCFCE"/>
			</linearGradient>
			<path style="fill:url(#SVGID_00000160883022084140159730000010409110418907563164_);" d="M2480.02,325.65h-129.04V110.48h124.09
				v39.46h-75.63v47.87h70.37v39.31h-70.37v49.22h80.58V325.65z"/>
			
				<linearGradient id="SVGID_00000113340736457168107850000001447827473020251837_" gradientUnits="userSpaceOnUse" x1="-310.7388" y1="-225.2567" x2="3303.8269" y2="334.8599">
				<stop  offset="0.0503" style="stop-color:#535454"/>
				<stop  offset="0.1344" style="stop-color:#E5E5E5"/>
				<stop  offset="0.2527" style="stop-color:#B9B9B9"/>
				<stop  offset="0.3376" style="stop-color:#FFFFFF"/>
				<stop  offset="0.6935" style="stop-color:#A8A7A7"/>
				<stop  offset="0.8387" style="stop-color:#CFCFCE"/>
			</linearGradient>
			<path style="fill:url(#SVGID_00000113340736457168107850000001447827473020251837_);" d="M2654.05,325.65H2525.9V110.48h48.47
				v175.86h79.68V325.65z"/>
			
				<linearGradient id="SVGID_00000106143851488820926160000013106249783981851789_" gradientUnits="userSpaceOnUse" x1="-305.8787" y1="-256.6202" x2="3308.687" y2="303.4964">
				<stop  offset="0.0503" style="stop-color:#535454"/>
				<stop  offset="0.1344" style="stop-color:#E5E5E5"/>
				<stop  offset="0.2527" style="stop-color:#B9B9B9"/>
				<stop  offset="0.3376" style="stop-color:#FFFFFF"/>
				<stop  offset="0.6935" style="stop-color:#A8A7A7"/>
				<stop  offset="0.8387" style="stop-color:#CFCFCE"/>
			</linearGradient>
			<path style="fill:url(#SVGID_00000106143851488820926160000013106249783981851789_);" d="M2684.47,317.4v-48.02
				c8.7,7.3,18.16,12.78,28.36,16.43c10.2,3.65,20.51,5.48,30.91,5.48c6.1,0,11.43-0.55,15.98-1.65c4.55-1.1,8.35-2.63,11.4-4.58
				c3.05-1.95,5.33-4.25,6.83-6.9c1.5-2.65,2.25-5.52,2.25-8.63c0-4.2-1.2-7.95-3.6-11.25c-2.4-3.3-5.68-6.35-9.83-9.15
				c-4.15-2.8-9.08-5.5-14.78-8.1c-5.7-2.6-11.85-5.25-18.46-7.95c-16.81-7-29.33-15.55-37.59-25.66
				c-8.25-10.1-12.38-22.31-12.38-36.61c0-11.2,2.25-20.83,6.75-28.88c4.5-8.05,10.63-14.68,18.38-19.88
				c7.75-5.2,16.73-9.03,26.93-11.48c10.2-2.45,21.01-3.68,32.41-3.68c11.2,0,21.13,0.68,29.79,2.03
				c8.65,1.35,16.63,3.43,23.93,6.23V160c-3.6-2.5-7.53-4.7-11.78-6.6c-4.25-1.9-8.63-3.48-13.13-4.73
				c-4.5-1.25-8.98-2.18-13.43-2.78c-4.45-0.6-8.68-0.9-12.68-0.9c-5.5,0-10.5,0.53-15.01,1.58c-4.5,1.05-8.3,2.53-11.4,4.43
				c-3.1,1.9-5.5,4.18-7.2,6.83c-1.7,2.65-2.55,5.63-2.55,8.93c0,3.6,0.95,6.83,2.85,9.68c1.9,2.85,4.6,5.55,8.1,8.1
				c3.5,2.55,7.75,5.05,12.75,7.5c5,2.45,10.65,4.98,16.96,7.58c8.6,3.6,16.33,7.43,23.18,11.48c6.85,4.05,12.73,8.63,17.63,13.73
				c4.9,5.1,8.65,10.93,11.25,17.48c2.6,6.55,3.9,14.18,3.9,22.88c0,12-2.28,22.08-6.83,30.24c-4.55,8.15-10.73,14.76-18.53,19.81
				c-7.8,5.05-16.88,8.68-27.23,10.88s-21.28,3.3-32.79,3.3c-11.8,0-23.03-1-33.69-3S2692.28,321.4,2684.47,317.4z"/>
		</g>
	</g>
	<g>
		<g>
			
				<linearGradient id="SVGID_00000112603517228431717140000016622256709479496886_" gradientUnits="userSpaceOnUse" x1="6.9751" y1="118.7976" x2="206.6508" y2="335.718">
				<stop  offset="0.1344" style="stop-color:#E5E5E5"/>
				<stop  offset="0.2527" style="stop-color:#B9B9B9"/>
				<stop  offset="0.4493" style="stop-color:#FFFFFF"/>
				<stop  offset="0.6935" style="stop-color:#A8A7A7"/>
				<stop  offset="0.8387" style="stop-color:#CFCFCE"/>
			</linearGradient>
			
				<polygon style="fill:none;stroke:url(#SVGID_00000112603517228431717140000016622256709479496886_);stroke-width:6;stroke-miterlimit:10;" points="
				45.92,87.41 127.28,39.58 127.28,400.78 3,327.92 3,239.85 45.02,239.85 45.02,303.33 85.26,327.92 85.26,113.34 44.13,136.14 
							"/>
			
				<linearGradient id="SVGID_00000163048983978078638970000015397118527396427140_" gradientUnits="userSpaceOnUse" x1="96.5595" y1="76.6641" x2="353.2146" y2="355.4849">
				<stop  offset="0.1344" style="stop-color:#E5E5E5"/>
				<stop  offset="0.2527" style="stop-color:#B9B9B9"/>
				<stop  offset="0.4493" style="stop-color:#FFFFFF"/>
				<stop  offset="0.6935" style="stop-color:#A8A7A7"/>
				<stop  offset="0.8387" style="stop-color:#CFCFCE"/>
			</linearGradient>
			
				<polygon style="fill:none;stroke:url(#SVGID_00000163048983978078638970000015397118527396427140_);stroke-width:6;stroke-miterlimit:10;" points="
				189.26,3.45 167.77,15.62 167.77,424.31 189.26,435.99 377.67,328.47 377.67,111.73 334.91,87.59 334.91,301.86 295.23,325.13 
				295.23,63.92 252.18,39.58 252.18,351.31 210.87,376.01 210.67,15.56 			"/>
		</g>
		<g>
			
				<linearGradient id="SVGID_00000039852015071618336970000011719113969464414364_" gradientUnits="userSpaceOnUse" x1="-52.9047" y1="55.5089" x2="383.5934" y2="529.7045">
				<stop  offset="0.0503" style="stop-color:#535454"/>
				<stop  offset="0.1344" style="stop-color:#E5E5E5"/>
				<stop  offset="0.2527" style="stop-color:#B9B9B9"/>
				<stop  offset="0.3376" style="stop-color:#FFFFFF"/>
				<stop  offset="0.6935" style="stop-color:#A8A7A7"/>
				<stop  offset="0.8387" style="stop-color:#CFCFCE"/>
			</linearGradient>
			<polygon style="fill:url(#SVGID_00000039852015071618336970000011719113969464414364_);" points="45.92,87.41 127.28,39.58 
				127.28,400.78 3,327.92 3,239.85 45.02,239.85 45.02,303.33 85.26,327.92 85.26,113.34 44.13,136.14 			"/>
			
				<linearGradient id="SVGID_00000063591090896137890730000011469536290325903496_" gradientUnits="userSpaceOnUse" x1="17.4705" y1="-9.2716" x2="453.9685" y2="464.924">
				<stop  offset="0.0503" style="stop-color:#535454"/>
				<stop  offset="0.1344" style="stop-color:#E5E5E5"/>
				<stop  offset="0.2527" style="stop-color:#B9B9B9"/>
				<stop  offset="0.3376" style="stop-color:#FFFFFF"/>
				<stop  offset="0.6935" style="stop-color:#A8A7A7"/>
				<stop  offset="0.8387" style="stop-color:#CFCFCE"/>
			</linearGradient>
			<polygon style="fill:url(#SVGID_00000063591090896137890730000011469536290325903496_);" points="189.26,3.45 167.77,15.62 
				167.77,424.31 189.26,435.99 377.67,328.47 377.67,111.73 334.91,87.59 334.91,301.86 295.23,325.13 295.23,63.92 252.18,39.58 
				252.18,351.31 210.87,376.01 210.67,15.56 			"/>
		</g>
	</g>
</g>
</svg>
