<!DOCTYPE svg PUBLIC "-//W3C//DTD SVG 1.1//EN" "http://www.w3.org/Graphics/SVG/1.1/DTD/svg11.dtd">
<!-- Uploaded to: SVG Repo, www.svgrepo.com, Transformed by: SVG Repo Mixer Tools -->
<svg fill="#052c65" height="800px" width="800px" version="1.1" id="Capa_1" xmlns="http://www.w3.org/2000/svg" xmlns:xlink="http://www.w3.org/1999/xlink" viewBox="0 0 612.34 612.34" xml:space="preserve">
<g id="SVGRepo_bgCarrier" stroke-width="0"/>
<g id="SVGRepo_tracerCarrier" stroke-linecap="round" stroke-linejoin="round"/>
<g id="SVGRepo_iconCarrier"> <g> <path d="M413.05,203.517c26.932,0,48.842-21.911,48.842-48.844c0-26.933-21.91-48.843-48.842-48.843 c-26.926,0-48.832,21.91-48.832,48.843C364.218,181.606,386.124,203.517,413.05,203.517z"/> <path d="M609.218,325.379l-35.216-35.215c-2.01-2.01-4.69-3.116-7.548-3.116c-2.857,0-5.538,1.106-7.548,3.116l-10.3,10.3 c-0.422-0.494-0.858-0.978-1.322-1.441c-4.55-4.552-10.63-7.127-17.189-7.311l-16.629-22.676c-4.448-6.065-11.95-14.5-17.449-19.62 l-34.404-32.039c-3.444-3.207-6.23-5.469-12.476-5.469c-0.467,0-63.207-0.075-63.207-0.075c-9.963,0-14.878,4.961-18.113,11.433 l-25.123,50.268c-1.354,2.71-4.182,6.966-6.714,10.237c-9.554-26.6-19.209-52.989-22.499-60.332 c-6.443-14.38-25.718-21.243-39.691-25.155c-1.607-0.586-21.423-7.318-83.083-7.318c-63.076,0-82.359,7.049-83.082,7.325 c-12.945,4.339-32.508,10.895-40.275,25.702c-2.796,5.334-12.746,32.355-29.571,80.315H23.758c-7.786,0-15.966,6.074-18.623,13.826 L0.807,330.71c-1.367,4.017-0.984,7.949,1.05,10.791c1.931,2.697,5.103,4.182,8.932,4.182h12.598l-2.27,6.564 c-1.484,2.903-2.226,12.694-2.226,14.741l9.162,78.145l0.02,0.126c0.575,3.03,3.173,8.76,8.891,8.76h2.201v21.945 c0,19.697,14.401,30.545,40.551,30.545s40.551-10.848,40.551-30.545v-21.945H261.16v21.945c0,19.697,14.401,30.545,40.551,30.545 s40.551-10.848,40.551-30.545v-21.945h2.201c6.22,0,8.416-4.644,8.708-7.102l9.359-79.737l0.012-0.21 c0-2.047-0.742-11.847-2.227-14.733c-0.199-0.557-1.034-2.896-2.315-6.555h12.644c3.826,0,6.998-1.491,8.93-4.199 c2.034-2.85,2.411-6.778,1.037-10.775l-4.289-12.573c-1.302-3.798-3.938-7.186-7.2-9.659c4.067-5.32,8.076-11.511,10.55-16.463 l4.585-9.173l7.289,42.837c-0.075,0.479-0.154,0.957-0.198,1.448l-5.799,65.08c-0.627,7.03-0.925,18.064-0.679,25.119l2.316,66.339 c0.412,11.794,9.973,21.032,21.767,21.032c0.255,0,0.513-0.005,0.772-0.014c12.009-0.42,21.438-10.531,21.019-22.54l-2.316-66.339 c-0.184-5.263,0.065-14.482,0.533-19.729l4.057-45.525h8.358l10.754,51.07c1.546,7.344,4.832,18.13,7.643,25.088l23.619,58.464 c3.347,8.282,11.281,13.635,20.212,13.635c2.798,0,5.543-0.536,8.156-1.592c11.142-4.501,16.544-17.228,12.043-28.369 l-23.619-58.463c-1.858-4.6-4.384-12.892-5.406-17.746l-16.422-77.441l-5.097-29.95c2.596,2.86,5.196,5.954,6.872,8.239 l16.775,22.876c1.252,1.706,2.752,3.188,4.426,4.415c0.245,6.449,2.792,12.393,7.299,16.897c0.463,0.464,0.947,0.9,1.441,1.323 l-10.299,10.299c-2.01,2.01-3.117,4.69-3.118,7.548c0,2.857,1.107,5.538,3.117,7.548l35.216,35.216 c2.01,2.01,4.69,3.116,7.547,3.116c2.857,0,5.538-1.106,7.548-3.116l59.131-59.131C613.38,336.312,613.38,329.541,609.218,325.379z M311.144,309.953c-8.212,2.451-48.442,13.23-120.436,13.23c-71.988,0-112.504-10.78-120.741-13.219 c8.174-33.551,16.74-54.572,20.891-64.761c0.783-1.921,1.401-3.438,1.779-4.467c0.074-0.183,0.148-0.38,0.226-0.59 c1.625-4.357,6.572-17.612,97.865-17.612c88.402,0,96.171,13.994,96.766,15.59c0.015,0.042,0.035,0.094,0.06,0.153 c0.679,2.012,1.779,4.882,3.166,8.497C295.374,258.906,303.96,281.29,311.144,309.953z M305.672,399.761H285.43 c-15.085,0-17.945-3.494-17.945-9.941c0-6.416,9.296-10.42,19.138-14.659c1.517-0.653,3.041-1.311,4.54-1.98 c7.799-3.466,26.064-11.584,34.454-11.584c8.964,0,14.407,0.815,14.407,12.114v13.936l0.005,0.484 C339.57,395.849,328.017,399.761,305.672,399.761z M41.392,387.646v-13.918c0-11.299,5.443-12.114,14.408-12.114 c7.723,0,23.359,6.612,34.451,11.586c1.487,0.664,2.997,1.315,4.499,1.962c9.865,4.251,19.183,8.266,19.183,14.657 c0,6.447-2.86,9.941-17.948,9.941H75.764C52.957,399.761,41.392,395.684,41.392,387.646z M517.601,328.704 c-1.14-1.14-2.014-2.481-2.624-3.953c3.911-0.259,7.627-1.605,10.822-3.948c4.452-3.265,7.366-8.068,8.205-13.524 c0.102-0.662,0.169-1.324,0.207-1.984c1.536,0.612,2.93,1.52,4.105,2.695c0.467,0.467,0.878,0.977,1.259,1.506l-20.468,20.468 C518.577,329.583,518.068,329.171,517.601,328.704z"/> </g> </g>
</svg>